# File created by Blade
# Date/Time:  Wed Jan 21 16:14:13 2015
# Frame Rate: 120.000 fps
#------------------------------------------------------
:FULLY-SPECIFIED
:DEGREES
246
root 18.596914 35.546839 -19.892275 -170.844144 -2.846080 -178.777061
Spine -18.380677 -0.725951 0.932181
Head 11.271310 0.582522 0.349005
LeftShoulder -17.163664 -21.812050 2.765837
LeftArm -33.522742 -18.045413 -59.773266
LeftForeArm -4.030242 -0.000000 -0.828482
LeftHand -0.650161 0.000000 -9.334762
LeftHandThumb1 -26.253704 0.000000 33.147579
RightShoulder -17.748528 -10.375526 8.249827
RightArm 0.227141 32.793450 76.363702
RightForeArm -25.246774 0.000000 6.187109
RightHand -2.037873 0.000000 14.081588
RightHandThumb1 -24.326973 -0.000000 -32.862282
LeftUpLeg -2.150913 8.203070 0.147049
LeftLeg -5.121344 -0.000000 0.000000
LeftFoot -21.252921 25.378401 -12.160065
LeftToeBase 27.512804 -0.000000 -0.000000
RightUpLeg -2.875531 -6.762616 2.250924
RightLeg -2.664533 -0.000000 0.000000
RightFoot -21.375778 -28.130837 13.766389
RightToeBase 23.748940 -0.000000 -0.000000
247
root 18.595947 35.544988 -19.907846 -170.833130 -2.812799 -178.772236
Spine -18.471165 -0.863303 0.997579
Head 11.318159 0.827158 0.355525
LeftShoulder -17.316744 -21.680899 2.693923
LeftArm -33.317845 -18.014750 -60.355574
LeftForeArm -3.039240 -0.000000 -0.993907
LeftHand -0.723535 0.000000 -10.146295
LeftHandThumb1 -26.253704 0.000000 33.147579
RightShoulder -17.856085 -10.428752 8.348983
RightArm 0.207396 32.577029 76.565835
RightForeArm -25.164199 0.000000 6.100622
RightHand -2.098327 -0.000000 15.600057
RightHandThumb1 -24.326973 -0.000000 -32.862282
LeftUpLeg -2.107184 8.160706 0.154877
LeftLeg -5.164711 -0.000000 0.000000
LeftFoot -21.223863 25.467288 -12.104272
LeftToeBase 27.424442 -0.000000 -0.000000
RightUpLeg -2.851425 -6.772617 2.254349
RightLeg -2.694035 -0.000000 0.000000
RightFoot -21.374031 -28.126190 13.760533
RightToeBase 23.717954 -0.000000 -0.000000
248
root 18.593189 35.543598 -19.923023 -170.822523 -2.731700 -178.762255
Spine -18.569769 -0.925256 1.057945
Head 11.373134 1.019090 0.341033
LeftShoulder -17.384926 -21.684042 2.617688
LeftArm -33.263883 -18.046000 -60.690784
LeftForeArm -2.041920 -0.000000 -1.154290
LeftHand -0.872289 -0.000000 -10.732956
LeftHandThumb1 -26.253704 0.000000 33.147579
RightShoulder -18.016958 -10.622262 8.450522
RightArm 0.431849 32.939630 76.800646
RightForeArm -25.761909 -0.000000 5.903578
RightHand -2.082165 -0.000000 17.077751
RightHandThumb1 -24.326973 -0.000000 -32.862282
LeftUpLeg -2.055001 8.184935 0.156639
LeftLeg -5.222750 -0.000000 0.000000
LeftFoot -21.284681 25.500433 -12.192660
LeftToeBase 27.295101 -0.000000 -0.000000
RightUpLeg -2.845586 -6.735170 2.253151
RightLeg -2.693992 -0.000000 0.000000
RightFoot -21.390435 -28.102688 13.784559
RightToeBase 23.730149 -0.000000 -0.000000
249
root 18.593894 35.542248 -19.932888 -170.803793 -2.760170 -178.761254
Spine -18.656816 -1.082324 1.097134
Head 11.409692 1.199437 0.408101
LeftShoulder -17.484905 -21.524569 2.571497
LeftArm -33.018236 -18.694790 -60.637465
LeftForeArm -0.413207 -0.000000 -1.477759
LeftHand -0.942554 0.000000 -11.389537
LeftHandThumb1 -26.253704 0.000000 33.147579
RightShoulder -18.065054 -10.641201 8.485793
RightArm 0.326470 32.763463 76.781163
RightForeArm -25.875197 -0.000000 5.854218
RightHand -2.137744 -0.000000 18.220203
RightHandThumb1 -24.326973 -0.000000 -32.862282
LeftUpLeg -2.056375 8.047128 0.175343
LeftLeg -5.216029 -0.000000 0.000000
LeftFoot -21.287012 25.570797 -12.178684
LeftToeBase 27.374677 -0.000000 -0.000000
RightUpLeg -2.843043 -6.797318 2.266811
RightLeg -2.705721 -0.000000 0.000000
RightFoot -21.380350 -28.117236 13.750959
RightToeBase 23.713901 -0.000000 -0.000000
250
root 18.595452 35.540438 -19.946642 -170.784972 -2.713404 -178.730619
Spine -18.752882 -1.195632 1.181286
Head 11.419432 1.401349 0.434885
LeftShoulder -17.576711 -21.544706 2.563642
LeftArm -32.964303 -18.898624 -60.591711
LeftForeArm 0.837029 -0.000000 -1.636782
LeftHand -1.090707 -0.000000 -11.986110
LeftHandThumb1 -26.253704 0.000000 33.147579
RightShoulder -18.138202 -10.803277 8.458631
RightArm 0.473676 33.047704 76.823559
RightForeArm -26.504534 -0.000000 5.618574
RightHand -2.015374 -0.000000 19.441825
RightHandThumb1 -24.326973 -0.000000 -32.862282
LeftUpLeg -2.025315 8.009366 0.214145
LeftLeg -5.252349 -0.000000 0.000000
LeftFoot -21.346474 25.599189 -12.212162
LeftToeBase 27.492798 -0.000000 -0.000000
RightUpLeg -2.849459 -6.797330 2.302346
RightLeg -2.703543 -0.000000 0.000000
RightFoot -21.388298 -28.104303 13.765376
RightToeBase 23.711309 -0.000000 -0.000000
251
root 18.592638 35.538615 -19.960798 -170.772289 -2.630854 -178.725035
Spine -18.842824 -1.259434 1.229120
Head 11.426248 1.591357 0.465616
LeftShoulder -17.606249 -21.666399 2.584522
LeftArm -33.008197 -18.811295 -60.550326
LeftForeArm 1.546418 -0.000000 -1.661487
LeftHand -1.301712 -0.000000 -12.308127
LeftHandThumb1 -26.253704 0.000000 33.147579
RightShoulder -18.120975 -10.829574 8.346273
RightArm 0.284971 32.809870 76.639140
RightForeArm -26.545025 -0.000000 5.673698
RightHand -2.213861 -0.000000 20.566554
RightHandThumb1 -24.326973 -0.000000 -32.862282
LeftUpLeg -1.984240 7.970168 0.217820
LeftLeg -5.280070 -0.000000 0.000000
LeftFoot -21.374550 25.702852 -12.246545
LeftToeBase 27.379915 -0.000000 -0.000000
RightUpLeg -2.853877 -6.746698 2.298521
RightLeg -2.692156 -0.000000 0.000000
RightFoot -21.418279 -28.088973 13.787355
RightToeBase 23.690801 -0.000000 -0.000000
